<svg viewBox="0 0 3345 3926" width="600" height="600" xmlns="http://www.w3.org/2000/svg" fill-rule="evenodd" clip-rule="evenodd" stroke-linejoin="round" stroke-miterlimit="2"><ellipse cx="2219.06" cy="2283.16" rx="428.763" ry="79.063" fill="url(#_Linear1)" transform="matrix(3.70145 0 0 2.4864 -6473.871 -3317.828)"/><g transform="matrix(3.3182 0 0 3.3182 -4970.431 -4671.023)"><path d="M1755.86 1825.9s-98.39 148.12-205.49 109.83c-34.19-12.23-54.47-54.9-52.27-122.51 0 0 98.84 148.63 255.4-35.69 19.3-22.71 57.89-69.63 93.55-94.5 50.26-35.05 101.59-54.64 112.39-59.91 16.33 11.27 37.36 23.72 72.55 37.16 64.55 24.65 249.95 38.74 377.83 106.25 25.9 13.67 46.58 25.45 69.65 42.14l-30.2 12.66s-162.12-67.46-329.3-45.36c-66.52 8.8-133.84 37.06-163.69 59.68-37.38 28.32-55.91 72.27-103.98 124.66-57.98 63.19-103.57 60.6-159.43 92.76-29.23 16.83-47.39 59-47.39 59l-39.57 1.55 52.69-111.05c62.83-19.99 100.76-79.11 100.76-148.53 0-7.81-3.5-28.14-3.5-28.14zm307.1-241.08c18.05 20.9 67.7 55.73 220.6 91.51-3.03 14.48 2.98 24.86 14.23 33.59-22.71-5.86-103.69-26.89-157.52-42.35-48.64-13.98-99.07-31.19-126.94-67.87 16.42-5.65 32.92-10.48 49.63-14.88zm101.49-26.3c16.52 22.14 54.3 59.8 130.7 93.43-3.01 3.64-5.69 8.03-7.96 13.32-27.66-8.54-157.35-48.89-181.9-92.34 7-1.59 14.05-3.16 21.16-4.74 14.78-3.27 27.28-6.46 38-9.67zm34.04-12.22c46.98-23.05 48.18-67.22 108.09-118.18 0 0 35.17-25.33 71.74-19.57 0 0-29.85 12.36-36.41 57.89 0 0 51.57-.04 67.08 17.73 24.71 28.32 11.01 34.73 43.87 42.04 32.86 7.31 53.15 11.5 53.15 11.5s-17.77 58.97-78.19 55.6c-19.27-1.08-41.67-6.68-62.95-.45-28.9 8.45-53.12 32.35-63.21 50.04-25.72-14.56-74.71-46.93-103.17-96.6z" fill="url(#_Linear2)"/><clipPath id="a"><path d="M1755.86 1825.9s-98.39 148.12-205.49 109.83c-34.19-12.23-54.47-54.9-52.27-122.51 0 0 98.84 148.63 255.4-35.69 19.3-22.71 57.89-69.63 93.55-94.5 50.26-35.05 101.59-54.64 112.39-59.91 16.33 11.27 37.36 23.72 72.55 37.16 64.55 24.65 249.95 38.74 377.83 106.25 25.9 13.67 46.58 25.45 69.65 42.14l-30.2 12.66s-162.12-67.46-329.3-45.36c-66.52 8.8-133.84 37.06-163.69 59.68-37.38 28.32-55.91 72.27-103.98 124.66-57.98 63.19-103.57 60.6-159.43 92.76-29.23 16.83-47.39 59-47.39 59l-39.57 1.55 52.69-111.05c62.83-19.99 100.76-79.11 100.76-148.53 0-7.81-3.5-28.14-3.5-28.14zm307.1-241.08c18.05 20.9 67.7 55.73 220.6 91.51-3.03 14.48 2.98 24.86 14.23 33.59-22.71-5.86-103.69-26.89-157.52-42.35-48.64-13.98-99.07-31.19-126.94-67.87 16.42-5.65 32.92-10.48 49.63-14.88zm101.49-26.3c16.52 22.14 54.3 59.8 130.7 93.43-3.01 3.64-5.69 8.03-7.96 13.32-27.66-8.54-157.35-48.89-181.9-92.34 7-1.59 14.05-3.16 21.16-4.74 14.78-3.27 27.28-6.46 38-9.67zm34.04-12.22c46.98-23.05 48.18-67.22 108.09-118.18 0 0 35.17-25.33 71.74-19.57 0 0-29.85 12.36-36.41 57.89 0 0 51.57-.04 67.08 17.73 24.71 28.32 11.01 34.73 43.87 42.04 32.86 7.31 53.15 11.5 53.15 11.5s-17.77 58.97-78.19 55.6c-19.27-1.08-41.67-6.68-62.95-.45-28.9 8.45-53.12 32.35-63.21 50.04-25.72-14.56-74.71-46.93-103.17-96.6z"/></clipPath><g clip-path="url(#a)"><path d="M3662.33 2424.17s-72.6 4.67-111.7 83.97c-39.1 79.3-81.67 83.04-231.11 134.71-149.44 51.68-222.53 127.93-250.79 227.17-28.25 99.23-69.23 150.16-165.15 157.68-95.91 7.52-325.72-63.93-183.65-266.84 142.06-202.91 828.76-398.74 828.76-398.74l113.64 62.05z" fill="url(#_Linear4)" transform="translate(-1267.53 -1017.93)"/><path d="M2995.7 3061.06c41.07-25.6 104.41-33.18 177.17-145.96 17.57-27.22 46.71-65.01 75.39-84.36 35.88-24.2 93.41-57.95 188.48-63.02 100.37-5.35 234.68 34.61 322.65 88.65l-824.92 288.94s10.48-52.63 61.23-84.25z" fill="url(#_Linear5)" transform="translate(-1289.67 -1030.33)"/></g></g><g><path d="M604.514 3473.522c30.873-29.24 46.274-67.01 46.274-113.31 0-44.64-15.4-81.192-46.274-109.653-30.898-28.413-69.058-42.644-114.528-42.644-45.494 0-82.874 14.231-112.09 42.644-29.242 28.461-43.887 65.792-43.887 112.066 0 46.323 14.645 83.679 43.886 112.116 29.217 28.437 66.597 42.643 112.091 42.643 45.47 0 83.63-14.645 114.528-43.862m47.517-416.686h173.01v609.19H652.03v-46.298c-26.805 20.322-56.24 35.942-88.333 46.907-32.092 10.966-64.38 16.448-96.861 16.448-63.356 0-117.988-13.816-163.872-41.424-45.909-27.585-81.022-65.574-105.39-113.919-24.368-48.32-36.551-103.367-36.551-165.115 0-61.698 12.183-117.11 36.551-166.284 24.368-49.15 59.481-87.529 105.39-115.137 45.884-27.584 100.516-41.45 163.872-41.45 33.286 0 65.792 5.727 97.47 17.082 31.654 11.38 60.92 27.243 87.724 47.517v-47.517zM1368.462 3473.522c30.85-29.24 46.274-67.01 46.274-113.31 0-44.64-15.424-81.192-46.274-109.653-30.898-28.413-69.058-42.644-114.552-42.644s-82.655 14.231-111.457 42.644c-28.852 28.461-43.277 65.792-43.277 112.066 0 46.323 14.425 83.679 43.277 112.116 28.802 28.437 65.963 42.643 111.457 42.643s83.654-14.645 114.552-43.862m46.274-416.686h174.228v578.73c0 56.826-14.815 107.218-44.446 151.08-29.655 43.861-70.495 77.976-122.472 102.344-51.976 24.367-110.458 36.551-175.422 36.551-70.666 0-135.46-13.621-194.356-40.816-58.896-27.218-100.102-62.356-123.665-105.39l148.642-86.504c10.551 21.102 31.702 38.55 63.356 52.39 31.678 13.816 68.643 20.712 110.872 20.712 47.127 0 86.091-12.183 116.99-36.551 30.849-24.368 46.273-55.631 46.273-93.815v-15.84c-26.804 20.323-55.85 35.943-87.114 46.908-31.264 10.966-63.55 16.448-96.837 16.448-63.355 0-117.988-13.816-163.872-41.424-45.933-27.585-81.046-65.574-105.414-113.919-24.368-48.32-36.551-103.367-36.551-165.115 0-61.698 12.183-117.11 36.551-166.284 24.368-49.15 59.481-87.529 105.414-115.137 45.884-27.584 100.517-41.45 163.872-41.45 32.458 0 64.574 5.508 96.228 16.473 31.702 10.941 60.919 26.61 87.723 46.908v-46.299zM1740.044 3056.86h174.203v609.19h-174.203v-609.19zm11.599-109.069c-18.276-17.447-27.414-41.205-27.414-71.275 0-30.85 9.138-55.217 27.414-73.103 18.275-17.837 43.642-26.78 76.148-26.78 31.63 0 56.825 8.943 75.515 26.78 18.666 17.886 28.048 42.254 28.048 73.103 0 30.07-9.382 53.828-28.048 71.275-18.69 17.496-43.886 26.196-75.515 26.196-32.506 0-57.873-8.7-76.148-26.196M2241.407 3501.57c6.092 5.653 16.424 8.528 31.044 8.528 10.551 0 23.174-1.243 37.77-3.68v159.633c-39.792 5.653-70.666 8.528-92.597 8.528-52.805 0-92.572-14.036-119.377-42.034-26.829-28.023-40.206-77.391-40.206-148.057v-671.303h174.228v660.362c0 12.987 3.046 22.345 9.138 28.022" fill="#1f0065" fill-rule="nonzero"/><path d="M2423.53 3056.86h174.204v609.19H2423.53v-609.19zm11.575-109.069c-18.276-17.447-27.414-41.205-27.414-71.275 0-30.85 9.138-55.217 27.414-73.103 18.275-17.837 43.642-26.78 76.148-26.78 31.654 0 56.826 8.943 75.54 26.78 18.666 17.886 28.023 42.254 28.023 73.103 0 30.07-9.357 53.828-28.023 71.275-18.714 17.496-43.886 26.196-75.54 26.196-32.506 0-57.873-8.7-76.148-26.196M3113.133 3056.86h211.974l-219.309 305.79 219.309 303.4-213.217 1.195-112.066-155.953-112.091 155.953-213.217-1.194 219.309-303.401-219.309-305.79h211.974l113.334 157.147 113.309-157.146z" fill="#7065dd" fill-rule="nonzero"/></g><defs><linearGradient id="_Linear1" x1="0" y1="0" x2="1" y2="0" gradientUnits="userSpaceOnUse" gradientTransform="matrix(-857.526 0 0 -1276.58 2647.83 2283.15)"><stop offset="0" stop-color="#30b4d6" stop-opacity=".2"/><stop offset="1" stop-color="#7164dd" stop-opacity=".2"/></linearGradient><linearGradient id="_Linear2" x1="0" y1="0" x2="1" y2="0" gradientUnits="userSpaceOnUse" gradientTransform="rotate(180 1250.285 932.045) scale(1002.63)"><stop offset="0" stop-color="#30b4d6"/><stop offset="1" stop-color="#7164dd"/></linearGradient><linearGradient id="_Linear4" x1="0" y1="0" x2="1" y2="0" gradientUnits="userSpaceOnUse" gradientTransform="scale(-986.2) rotate(-30.824 -6.316 5.458)"><stop offset="0" stop-color="#4fc4e5"/><stop offset=".33" stop-color="#5eb9e6"/><stop offset=".75" stop-color="#82a1e7"/><stop offset="1" stop-color="#9687e9"/></linearGradient><linearGradient id="_Linear5" x1="0" y1="0" x2="1" y2="0" gradientUnits="userSpaceOnUse" gradientTransform="scale(845.339) rotate(-19.076 12.73 -8.54)"><stop offset="0" stop-color="#5964d5"/><stop offset=".45" stop-color="#4977d3"/><stop offset="1" stop-color="#3096cf"/></linearGradient></defs></svg>